<?xml version="1.0" encoding="utf-8"?>
<!-- Generator: Adobe Illustrator 24.3.0, SVG Export Plug-In . SVG Version: 6.00 Build 0)  -->
<svg version="1.1" id="레이어_1" xmlns="http://www.w3.org/2000/svg" xmlns:xlink="http://www.w3.org/1999/xlink" x="0px"
	 y="0px" viewBox="0 0 18 18" style="enable-background:new 0 0 18 18;" xml:space="preserve">
<style type="text/css">
	.st0{fill:#FF7342;}
</style>
<path class="st0" d="M14.6,2.4h-1.8V1.7c0-0.2-0.2-0.4-0.4-0.4S12,1.5,12,1.7v0.7H6V1.7c0-0.2-0.2-0.4-0.4-0.4S5.2,1.5,5.2,1.7v0.7
	H3.4c-0.5,0-1,0.4-1,1v11.2c0,0.5,0.4,1,1,1h11.2c0.5,0,1-0.4,1-1V3.4C15.6,2.8,15.2,2.4,14.6,2.4z M3.4,3.2h1.8v0.7
	c0,0.2,0.2,0.4,0.4,0.4S6,4.2,6,3.9V3.2H12v0.7c0,0.2,0.2,0.4,0.4,0.4s0.4-0.2,0.4-0.4V3.2h1.8c0.1,0,0.1,0.1,0.1,0.1v2.4H3.2V3.4
	C3.2,3.3,3.3,3.2,3.4,3.2z M14.6,14.8H3.4c-0.1,0-0.1-0.1-0.1-0.1v-8h11.5v8C14.8,14.7,14.7,14.8,14.6,14.8z M7.7,8.4v4.5
	c0,0.2-0.2,0.4-0.4,0.4s-0.4-0.2-0.4-0.4V9.1L6.4,9.4c-0.2,0.1-0.5,0-0.6-0.2C5.7,9,5.8,8.7,6,8.6l0,0l1.1-0.6C7.3,8,7.6,8,7.7,8.2
	C7.7,8.3,7.7,8.4,7.7,8.4z M11.9,10.5l-1.5,2h1.4c0.2,0,0.4,0.2,0.4,0.4s-0.2,0.4-0.4,0.4H9.6c-0.2,0-0.4-0.2-0.4-0.4
	c0-0.1,0-0.2,0.1-0.3l2-2.7c0.2-0.3,0.2-0.8-0.1-1c-0.3-0.2-0.8-0.2-1,0.1c0,0,0,0.1-0.1,0.1C10,9.4,9.7,9.5,9.5,9.4
	C9.3,9.3,9.2,9.1,9.3,8.8c0,0,0,0,0-0.1c0.4-0.7,1.4-1,2.1-0.6c0.7,0.4,1,1.4,0.6,2.1C12,10.4,12,10.4,11.9,10.5L11.9,10.5z"/>
</svg>
