<?xml version="1.0" encoding="utf-8"?>
<!-- Generator: Adobe Illustrator 24.3.0, SVG Export Plug-In . SVG Version: 6.00 Build 0)  -->
<svg version="1.1" id="레이어_1" xmlns="http://www.w3.org/2000/svg" xmlns:xlink="http://www.w3.org/1999/xlink" x="0px"
	 y="0px" viewBox="0 0 24 24" style="enable-background:new 0 0 24 24;" xml:space="preserve">
<style type="text/css">
	.st0{fill:#FF7342;}
</style>
<path class="st0" d="M23.1,12c0,1.7-0.6,3.4-1.6,4.8c-0.2,0.2-0.5,0.3-0.8,0.1c-0.2-0.2-0.3-0.5-0.1-0.8l0,0
	c2.3-3.1,1.7-7.4-1.4-9.7s-7.4-1.7-9.7,1.4C8.5,9,8.1,10.5,8.1,12c0,0.3-0.3,0.6-0.6,0.6S6.9,12.3,6.9,12c0-0.8,0.1-1.6,0.4-2.4
	c-0.2,0-0.4,0-0.6,0c-2.6,0-4.7,2.1-4.7,4.7s2.1,4.7,4.7,4.7H9c0.3,0,0.6,0.3,0.6,0.6S9.3,20.1,9,20.1H6.7c-3.2,0-5.8-2.6-5.8-5.8
	s2.6-5.8,5.8-5.8c0.3,0,0.7,0,1,0.1c1.9-4,6.7-5.7,10.8-3.8C21.3,6.1,23.1,8.9,23.1,12z M14.6,11.6c-0.2-0.2-0.6-0.2-0.8,0l-3,3
	c-0.2,0.2-0.2,0.6,0,0.8c0.2,0.2,0.6,0.2,0.8,0l2-2v6.1c0,0.3,0.3,0.6,0.6,0.6c0.3,0,0.6-0.3,0.6-0.6v-6.1l2,2
	c0.2,0.2,0.6,0.2,0.8,0c0.2-0.2,0.2-0.6,0-0.8L14.6,11.6z"/>
</svg>
