<?xml version="1.0" encoding="utf-8"?>
<!-- Generator: Adobe Illustrator 27.6.1, SVG Export Plug-In . SVG Version: 6.00 Build 0)  -->
<svg version="1.1" id="레이어_1" xmlns="http://www.w3.org/2000/svg" xmlns:xlink="http://www.w3.org/1999/xlink" x="0px"
	 y="0px" viewBox="0 0 24 24" style="enable-background:new 0 0 24 24;" xml:space="preserve">
<style type="text/css">
	.st0{fill:#030302;}
</style>
<path class="st0" d="M18.89,19.64h-4.24c-0.41,0-0.75-0.34-0.75-0.75s0.34-0.75,0.75-0.75l2.43,0L5.86,6.92l0,2.43
	c0,0.41-0.34,0.75-0.75,0.75S4.36,9.76,4.36,9.35V5.11c0-0.41,0.34-0.75,0.75-0.75c0,0,0,0,0,0h4.24c0.41,0,0.75,0.34,0.75,0.75
	c0,0.41-0.34,0.75-0.75,0.75l-2.43,0l11.23,11.23l0-2.43c0-0.41,0.34-0.75,0.75-0.75s0.75,0.34,0.75,0.75v4.24
	C19.64,19.31,19.31,19.64,18.89,19.64C18.89,19.64,18.89,19.64,18.89,19.64z"/>
</svg>
