<?xml version="1.0" encoding="utf-8"?>
<!-- Generator: Adobe Illustrator 24.3.0, SVG Export Plug-In . SVG Version: 6.00 Build 0)  -->
<svg version="1.1" id="레이어_1" xmlns="http://www.w3.org/2000/svg" xmlns:xlink="http://www.w3.org/1999/xlink" x="0px"
	 y="0px" viewBox="0 0 24 24" style="enable-background:new 0 0 24 24;" xml:space="preserve">
<style type="text/css">
	.st0{fill:#FF7342;}
</style>
<path class="st0" d="M15.4,9.4L12.8,12l2.6,2.6c0.23,0.21,0.24,0.57,0.03,0.8c-0.21,0.23-0.57,0.24-0.8,0.03
	c-0.01-0.01-0.02-0.02-0.03-0.03L12,12.8l-2.6,2.6c-0.23,0.21-0.58,0.2-0.8-0.03c-0.2-0.22-0.2-0.55,0-0.77l2.6-2.6L8.6,9.4
	C8.39,9.17,8.4,8.81,8.63,8.6c0.22-0.2,0.55-0.2,0.77,0l2.6,2.6l2.6-2.6c0.23-0.21,0.58-0.2,0.8,0.03C15.6,8.85,15.6,9.18,15.4,9.4z
	"/>
</svg>
